# xmcd
# 
# Track frame offsets:
#     150
#     22688
#     41024
#     57308
#     73354
#     90124
#     101068
#     122594
#     141925
#     161402
# 
# Disc length: 2371
# 
# Revision: 3
# Processed by: cddbd v1.5.2PL0 Copyright (c) Steve Scherf et al.
# Submitted via: fre:ac v1.1beta1pre5
# 
DISCID=7e09410a
DTITLE=James Blake - Overgrown
DYEAR=2013
DGENRE=Electro
TTITLE0=Overgrown
TTITLE1=I Am Sold
TTITLE2=Life Round Here
TTITLE3=Take A Fall For Me (feat. RZA)
TTITLE4=Retrograde
TTITLE5=DLM
TTITLE6=Digital Lion
TTITLE7=Voyeur
TTITLE8=To The Last
TTITLE9=Our Love Comes Back
EXTD=
EXTT0=
EXTT1=
EXTT2=
EXTT3=
EXTT4=
EXTT5=
EXTT6=
EXTT7=
EXTT8=
EXTT9=
PLAYORDER=
